<?xml version="1.0" encoding="UTF-8" standalone="no"?>
<svg
 xmlns:dc="http://purl.org/dc/elements/1.1/"
 xmlns:cc="http://creativecommons.org/ns#"
 xmlns:rdf="http://www.w3.org/1999/02/22-rdf-syntax-ns#"
 xmlns:svg="http://www.w3.org/2000/svg"
 xmlns="http://www.w3.org/2000/svg"
 xmlns:sodipodi="http://sodipodi.sourceforge.net/DTD/sodipodi-0.dtd"
 xmlns:inkscape="http://www.inkscape.org/namespaces/inkscape"
 width="24"
 height="24"
 viewBox="0 0 24 24"
 version="1.1"
 id="svg6"
 sodipodi:docname="baseline-3d2_rotation-24px.svg"
 inkscape:version="0.92.3 (2405546, 2018-03-11)">
<metadata
 id="metadata12">
<rdf:RDF>
<cc:Work
 rdf:about="">
<dc:format>image/svg+xml</dc:format>
<dc:type
 rdf:resource="http://purl.org/dc/dcmitype/StillImage" />
<dc:title />
</cc:Work>
</rdf:RDF>
</metadata>
<defs
 id="defs10" />
<sodipodi:namedview
 pagecolor="#ffffff"
 bordercolor="#666666"
 borderopacity="1"
 objecttolerance="10"
 gridtolerance="10"
 guidetolerance="10"
 inkscape:pageopacity="0"
 inkscape:pageshadow="2"
 inkscape:window-width="1920"
 inkscape:window-height="1012"
 id="namedview8"
 showgrid="false"
 inkscape:zoom="8"
 inkscape:cx="32.86547"
 inkscape:cy="16.655137"
 inkscape:window-x="0"
 inkscape:window-y="0"
 inkscape:window-maximized="1"
 inkscape:current-layer="svg6"
 showguides="false" />
<path
 d="M0 0h24v24H0z"
 fill="none"
 id="path2" />
<path
 sodipodi:nodetypes="cccccccc"
 inkscape:connector-curvature="0"
 id="path824"
 d="M 2.8902356,4.7541202 C -0.72768563,9.7541224 -0.64302384,16.059079 3.1951971,19.20952 L 3.6168895,19.517 3.6991525,14.676028 2.053595,15.025922 C 1.0311843,12.202705 1.6893584,8.646085 3.9032725,5.5821267 3.5585276,5.3045912 3.1796264,4.9854356 2.89024,4.7541149 Z"
 style="stroke-width:0.88664836" />
<path
 style="stroke-width:0.88666999"
 d="M 21.186556,19.248996 C 24.804465,14.24898 24.719649,7.9438981 20.881241,4.793302 l -0.421713,-0.3074955 -0.08215,4.8410667 1.645597,-0.3498623 c 1.02251,2.8232961 0.364076,6.3797021 -1.849829,9.4436691 0.40626,0.333215 0.617281,0.507567 1.013407,0.82832 z"
 id="path828"
 inkscape:connector-curvature="0"
 sodipodi:nodetypes="cccccccc" />
<path
 d="m 15.994324,5.7171434 c 0,-0.572535 -0.451435,-1.033475 -1.007411,-1.028623 H 8.9424481 c -0.5607288,0 -1.0121629,0.46094 -1.0074109,1.028623 V 17.381339 c 0,0.572536 0.451434,1.033475 1.0074109,1.028623 h 6.0444649 c 0.560728,0 1.012163,-0.46094 1.007411,-1.028623 z M 8.9424481,17.381339 V 5.7171434 H 14.986913 V 17.381339 Z"
 id="path4"
 inkscape:connector-curvature="0"
 sodipodi:nodetypes="scscscscsccccc"
 style="stroke-width:0.67906374" />
</svg>
