<?xml version="1.0" encoding="UTF-8" standalone="no"?>
<svg
 xmlns:dc="http://purl.org/dc/elements/1.1/"
 xmlns:cc="http://creativecommons.org/ns#"
 xmlns:rdf="http://www.w3.org/1999/02/22-rdf-syntax-ns#"
 xmlns:svg="http://www.w3.org/2000/svg"
 xmlns="http://www.w3.org/2000/svg"
 xmlns:sodipodi="http://sodipodi.sourceforge.net/DTD/sodipodi-0.dtd"
 xmlns:inkscape="http://www.inkscape.org/namespaces/inkscape"
 width="24"
 height="24"
 viewBox="0 0 24 24"
 version="1.1"
 id="svg6"
 sodipodi:docname="outline-photo_library-24px.svg"
 inkscape:version="0.92.3 (2405546, 2018-03-11)">
<metadata
 id="metadata12">
<rdf:RDF>
<cc:Work
 rdf:about="">
<dc:format>image/svg+xml</dc:format>
<dc:type
 rdf:resource="http://purl.org/dc/dcmitype/StillImage" />
</cc:Work>
</rdf:RDF>
</metadata>
<defs
 id="defs10" />
<sodipodi:namedview
 pagecolor="#ffffff"
 bordercolor="#666666"
 borderopacity="1"
 objecttolerance="10"
 gridtolerance="10"
 guidetolerance="10"
 inkscape:pageopacity="0"
 inkscape:pageshadow="2"
 inkscape:window-width="1920"
 inkscape:window-height="1012"
 id="namedview8"
 showgrid="false"
 inkscape:zoom="22.627417"
 inkscape:cx="12.594604"
 inkscape:cy="7.5199284"
 inkscape:window-x="0"
 inkscape:window-y="0"
 inkscape:window-maximized="1"
 inkscape:current-layer="svg6" />
<path
 d="m 19.8,4.2 v 12 h -12 v -12 h 12 m 0,-2 h -12 c -1.1,0 -2,0.9 -2,2 v 12 c 0,1.1 0.9,2 2,2 h 12 c 1.1,0 2,-0.9 2,-2 v -12 c 0,-1.1 -0.9,-2 -2,-2 z"
 id="path4"
 inkscape:connector-curvature="0"
 sodipodi:nodetypes="cccccsssssssss" />
<path
 d="m 4.76,5.3939999 c -1.0915874,0.1357828 -2,0.9 -2,2 V 19.394 c 0,1.1 0.9,2 2,2 h 12 c 1.1,0 2,-0.9 2,-2 V 18.2 h -2 v 1.194 h -12 V 7.3939999 L 5.8023729,7.3876399 5.8,5.3939962"
 id="path824"
 inkscape:connector-curvature="0"
 sodipodi:nodetypes="csssscccccccc" />
</svg>
