<?xml version="1.0" encoding="UTF-8" standalone="no"?>
<svg
 xmlns:dc="http://purl.org/dc/elements/1.1/"
 xmlns:cc="http://creativecommons.org/ns#"
 xmlns:rdf="http://www.w3.org/1999/02/22-rdf-syntax-ns#"
 xmlns:svg="http://www.w3.org/2000/svg"
 xmlns="http://www.w3.org/2000/svg"
 xmlns:sodipodi="http://sodipodi.sourceforge.net/DTD/sodipodi-0.dtd"
 xmlns:inkscape="http://www.inkscape.org/namespaces/inkscape"
 width="24"
 height="24"
 viewBox="0 0 24 24"
 version="1.1"
 id="svg6"
 sodipodi:docname="round-wallpaper-24px.svg"
 inkscape:version="0.92.3 (2405546, 2018-03-11)">
<metadata
 id="metadata12">
<rdf:RDF>
<cc:Work
 rdf:about="">
<dc:format>image/svg+xml</dc:format>
<dc:type
 rdf:resource="http://purl.org/dc/dcmitype/StillImage" />
</cc:Work>
</rdf:RDF>
</metadata>
<defs
 id="defs10" />
<sodipodi:namedview
 pagecolor="#ffffff"
 bordercolor="#666666"
 borderopacity="1"
 objecttolerance="10"
 gridtolerance="10"
 guidetolerance="10"
 inkscape:pageopacity="0"
 inkscape:pageshadow="2"
 inkscape:window-width="1920"
 inkscape:window-height="1012"
 id="namedview8"
 showgrid="false"
 inkscape:zoom="13.906433"
 inkscape:cx="2.4588354"
 inkscape:cy="8.7584132"
 inkscape:window-x="0"
 inkscape:window-y="0"
 inkscape:window-maximized="1"
 inkscape:current-layer="svg6" />
<path
 fill="none"
 d="M0 0h24v24H0V0z"
 id="path2" />
<path
 d="M 7.0203353,14.007425 0.94115892,21.64217 c -0.53398178,0.680936 -0.0616134,1.671389 0.80097248,1.671389 H 22.197738 c 0.842047,0 1.334954,-0.969819 0.82151,-1.650754 l -4.107552,-5.509398 c -0.410755,-0.557129 -1.232265,-0.557129 -1.64302,0 l -3.347654,4.49831 -5.2987426,-6.644292 c -0.4107548,-0.515861 -1.1911892,-0.515861 -1.6019441,0 z M 21.478646,4.6816118 c 0,-1.8917126 -1.512538,-3.4187578 -3.386279,-3.4187578 -1.873739,0 -3.386276,1.5270452 -3.386276,3.4187578 0,1.8917118 1.512537,3.4187584 3.386276,3.4187584 1.873741,0 3.386279,-1.5270466 3.386279,-3.4187584 z"
 id="path4"
 inkscape:connector-curvature="0"
 sodipodi:nodetypes="scsscccccssssss"
 style="stroke-width:2.05860424" />
</svg>
