<?xml version="1.0" encoding="UTF-8" standalone="no"?>
<svg
 xmlns:dc="http://purl.org/dc/elements/1.1/"
 xmlns:cc="http://creativecommons.org/ns#"
 xmlns:rdf="http://www.w3.org/1999/02/22-rdf-syntax-ns#"
 xmlns:svg="http://www.w3.org/2000/svg"
 xmlns="http://www.w3.org/2000/svg"
 xmlns:sodipodi="http://sodipodi.sourceforge.net/DTD/sodipodi-0.dtd"
 xmlns:inkscape="http://www.inkscape.org/namespaces/inkscape"
 width="24"
 height="24"
 viewBox="0 0 24 24"
 version="1.1"
 id="svg6"
 sodipodi:docname="round-right-24px.svg"
 inkscape:version="0.92.3 (2405546, 2018-03-11)">
<metadata
 id="metadata12">
<rdf:RDF>
<cc:Work
 rdf:about="">
<dc:format>image/svg+xml</dc:format>
<dc:type
 rdf:resource="http://purl.org/dc/dcmitype/StillImage" />
</cc:Work>
</rdf:RDF>
</metadata>
<defs
 id="defs10" />
<sodipodi:namedview
 pagecolor="#ffffff"
 bordercolor="#666666"
 borderopacity="1"
 objecttolerance="10"
 gridtolerance="10"
 guidetolerance="10"
 inkscape:pageopacity="0"
 inkscape:pageshadow="2"
 inkscape:window-width="1920"
 inkscape:window-height="1012"
 id="namedview8"
 showgrid="false"
 inkscape:zoom="39.333333"
 inkscape:cx="8.1755484"
 inkscape:cy="8.402754"
 inkscape:window-x="0"
 inkscape:window-y="0"
 inkscape:window-maximized="1"
 inkscape:current-layer="svg6" />
<path
 fill="none"
 d="M0 0h24v24H0V0z"
 id="path2" />
<path
 d="M 19.720862,14.060239 C 20.317484,11.833618 19.976548,9.3630992 18.481381,7.2933947 16.325952,4.3000815 12.235196,3.1746847 8.8518827,4.6546143 4.3766595,6.6033004 2.7096156,11.895896 5.0746156,15.992196 c 0.7975,1.38131 1.8281471,2.659817 3.2615597,3.106687 C 8.8105346,19.246766 9.5565217,18.982698 9.699914,18.508567 9.8714788,17.941283 9.2521454,17.41824 8.7331206,17.016412 7.6481784,16.176451 6.7144421,15.172458 6.2602304,13.725741 5.5745829,11.558165 6.2470889,9.1029791 7.9346653,7.5859472 10.874844,4.9184858 15.328971,5.7532608 17.198971,8.9921958 c 0.83,1.4376022 0.972443,3.0643202 0.568475,4.5446272 l -2.062698,-0.552698 c -0.860596,-0.230596 -1.575904,0.690455 -1.130904,1.461217 l 1.795,3.109032 c 0.275,0.476314 0.889712,0.641025 1.366026,0.366025 l 3.109031,-1.795 c 0.770762,-0.445 0.620474,-1.605307 -0.240122,-1.835903 z"
 id="path4"
 inkscape:connector-curvature="0"
 sodipodi:nodetypes="cccssasccscssssscc" />
</svg>
