<?xml version="1.0" encoding="UTF-8" standalone="no"?>
<svg
 xmlns:dc="http://purl.org/dc/elements/1.1/"
 xmlns:cc="http://creativecommons.org/ns#"
 xmlns:rdf="http://www.w3.org/1999/02/22-rdf-syntax-ns#"
 xmlns:svg="http://www.w3.org/2000/svg"
 xmlns="http://www.w3.org/2000/svg"
 xmlns:sodipodi="http://sodipodi.sourceforge.net/DTD/sodipodi-0.dtd"
 xmlns:inkscape="http://www.inkscape.org/namespaces/inkscape"
 width="24"
 height="24"
 viewBox="0 0 24 24"
 version="1.1"
 id="svg4"
 sodipodi:docname="round-keyboard_arrow3_right-24px.svg"
 inkscape:version="0.92.3 (2405546, 2018-03-11)">
<metadata
 id="metadata10">
<rdf:RDF>
<cc:Work
 rdf:about="">
<dc:format>image/svg+xml</dc:format>
<dc:type
 rdf:resource="http://purl.org/dc/dcmitype/StillImage" />
<dc:title></dc:title>
</cc:Work>
</rdf:RDF>
</metadata>
<defs
 id="defs8" />
<sodipodi:namedview
 pagecolor="#ffffff"
 bordercolor="#666666"
 borderopacity="1"
 objecttolerance="10"
 gridtolerance="10"
 guidetolerance="10"
 inkscape:pageopacity="0"
 inkscape:pageshadow="2"
 inkscape:window-width="1920"
 inkscape:window-height="1012"
 id="namedview6"
 showgrid="false"
 inkscape:zoom="13.906433"
 inkscape:cx="15.653442"
 inkscape:cy="15.039368"
 inkscape:window-x="0"
 inkscape:window-y="0"
 inkscape:window-maximized="1"
 inkscape:current-layer="svg4" />
<path
 d="M9.29 15.88L13.17 12 9.29 8.12c-.39-.39-.39-1.02 0-1.41.39-.39 1.02-.39 1.41 0l4.59 4.59c.39.39.39 1.02 0 1.41L10.7 17.3c-.39.39-1.02.39-1.41 0-.38-.39-.39-1.03 0-1.42z"
 id="path2" />
<path
 id="path819"
 d="m 5.1911776,16.095727 3.88,-3.88 -3.88,-3.8799995 c -0.39,-0.39 -0.39,-1.02 0,-1.41 0.39,-0.39 1.02,-0.39 1.41,0 l 4.5900004,4.5899995 c 0.39,0.39 0.39,1.02 0,1.41 l -4.5900004,4.59 c -0.39,0.39 -1.02,0.39 -1.41,0 -0.38,-0.39 -0.39,-1.03 0,-1.42 z"
 inkscape:connector-curvature="0" />
<path
 inkscape:connector-curvature="0"
 d="m 13.532641,16.095727 3.88,-3.88 -3.88,-3.8799995 c -0.39,-0.39 -0.39,-1.02 0,-1.41 0.39,-0.39 1.02,-0.39 1.41,0 l 4.59,4.5899995 c 0.39,0.39 0.39,1.02 0,1.41 l -4.59,4.59 c -0.39,0.39 -1.02,0.39 -1.41,0 -0.38,-0.39 -0.39,-1.03 0,-1.42 z"
 id="path821" />
</svg>
